<?xml version="1.0" standalone="no"?>
<!DOCTYPE svg PUBLIC "-//W3C//DTD SVG 20010904//EN"
 "http://www.w3.org/TR/2001/REC-SVG-20010904/DTD/svg10.dtd">
<svg version="1.0" xmlns="http://www.w3.org/2000/svg"
 width="964.000000pt" height="964.000000pt" viewBox="0 0 964.000000 964.000000"
 preserveAspectRatio="xMidYMid meet">
<metadata>
Created by potrace 1.14, written by Peter Selinger 2001-2017
</metadata>
<g transform="translate(0.000000,964.000000) scale(0.100000,-0.100000)"
fill="#000000" stroke="none">
<path d="M6630 8673 c-200 -12 -545 -80 -755 -149 -175 -57 -476 -216 -632
-333 -139 -104 -203 -176 -318 -355 l-69 -108 -30 33 c-49 55 -138 129 -211
177 -98 64 -426 221 -586 280 -308 115 -484 150 -794 159 -390 10 -623 -36
-1070 -212 -234 -92 -334 -158 -675 -444 -299 -251 -338 -289 -457 -436 -242
-304 -330 -423 -449 -612 -171 -270 -198 -327 -370 -788 -92 -246 -157 -562
-184 -890 -29 -341 5 -923 60 -1025 6 -11 42 -145 81 -297 80 -318 111 -415
204 -638 77 -186 137 -303 203 -398 156 -224 313 -441 363 -502 32 -38 165
-178 296 -311 227 -230 245 -246 388 -339 83 -54 183 -122 222 -152 277 -203
377 -251 813 -388 309 -97 478 -145 610 -176 52 -12 149 -37 215 -56 335 -96
403 -103 988 -103 470 0 475 0 713 30 631 81 876 130 1367 274 402 119 498
159 754 320 116 72 172 103 408 226 211 109 332 208 544 444 162 181 210 242
302 386 44 69 124 188 179 265 54 77 105 151 112 165 7 14 20 36 29 50 8 14
46 84 84 155 37 72 73 139 80 150 102 166 210 446 356 920 133 435 181 650
200 898 16 211 7 754 -15 869 -24 127 -110 469 -144 573 -71 215 -171 457
-243 587 -27 48 -88 163 -137 255 -103 195 -158 277 -281 426 -50 59 -123 151
-163 205 -118 158 -230 262 -438 406 -102 71 -195 138 -207 148 -12 12 -27 17
-34 13 -7 -5 -10 -4 -6 2 13 21 -193 138 -321 182 -152 52 -402 93 -667 111
-154 10 -197 10 -315 3z m440 -398 c238 -26 414 -66 515 -117 22 -11 114 -72
205 -136 91 -63 194 -136 230 -160 104 -72 182 -145 251 -233 130 -167 185
-236 243 -303 74 -88 126 -169 206 -321 34 -66 87 -164 117 -218 153 -274 281
-648 371 -1082 24 -116 24 -762 -1 -915 -36 -233 -100 -464 -269 -983 -83
-254 -129 -365 -224 -542 -45 -82 -103 -190 -129 -240 -26 -49 -54 -99 -61
-111 -8 -11 -11 -25 -7 -30 5 -5 4 -6 -1 -2 -9 7 -180 -231 -281 -392 -48 -76
-166 -229 -229 -296 -6 -6 -42 -47 -81 -91 -146 -164 -226 -223 -515 -373
-102 -53 -241 -132 -310 -174 -233 -145 -301 -173 -743 -300 -375 -108 -560
-145 -1107 -223 l-265 -38 -515 0 c-571 0 -573 0 -820 70 -69 20 -199 54 -290
76 -166 41 -257 66 -405 112 -44 14 -134 42 -200 62 -317 97 -443 154 -610
275 -60 44 -182 128 -270 187 -167 111 -196 137 -515 468 -137 141 -138 143
-241 290 -38 55 -75 107 -82 116 -15 19 -40 53 -118 166 -183 260 -337 699
-453 1288 -53 271 -60 336 -52 535 9 227 19 296 65 465 21 77 53 194 71 260
48 180 154 529 189 624 81 218 130 316 211 419 44 56 103 137 132 180 68 102
109 152 123 152 20 0 73 64 98 120 39 85 385 431 535 533 31 22 71 50 88 63
18 13 173 95 346 182 335 169 380 186 546 202 156 15 645 12 724 -4 67 -15
282 -117 631 -300 262 -138 332 -214 367 -399 14 -72 51 -116 127 -153 67 -33
132 -35 189 -6 57 29 66 43 128 185 70 160 88 195 144 282 25 39 60 94 79 123
85 134 112 171 167 230 119 127 443 310 671 379 115 34 329 81 448 97 137 19
412 19 577 1z"/>
<path d="M7110 7447 c-3 -3 -90 -10 -195 -16 -337 -21 -567 -56 -880 -136
-311 -79 -669 -207 -809 -289 -47 -27 -112 -99 -141 -156 -25 -48 -23 -113 8
-240 14 -58 38 -168 52 -245 32 -169 112 -500 131 -536 20 -40 79 -87 126
-100 38 -10 57 -8 168 20 179 45 529 91 696 91 l91 0 16 -85 c9 -50 32 -122
55 -173 73 -159 108 -284 142 -502 26 -163 41 -226 66 -263 51 -78 100 -388
90 -582 -6 -129 -33 -271 -58 -304 -62 -79 -102 -118 -173 -165 -96 -66 -181
-106 -236 -113 -61 -9 -154 16 -217 56 -78 50 -101 59 -169 66 -110 13 -190
-29 -239 -127 -30 -60 -82 -285 -123 -534 -24 -145 -32 -228 -34 -345 -2 -152
-2 -155 25 -200 62 -106 163 -153 485 -225 35 -7 90 -27 123 -44 42 -21 91
-35 167 -46 163 -25 229 -26 458 -11 180 13 219 18 275 40 36 14 106 40 155
58 99 37 161 71 246 135 65 49 103 94 189 224 35 52 93 136 130 185 102 138
104 142 152 265 81 206 118 325 163 527 25 109 53 225 64 258 55 175 98 849
72 1135 -6 69 -15 181 -20 250 -9 119 -14 138 -90 367 -45 133 -81 249 -81
257 0 8 10 27 23 41 22 26 24 26 222 35 161 7 213 13 265 30 177 59 250 153
266 343 6 82 -14 353 -37 487 -18 110 -136 317 -231 407 -75 71 -98 76 -358
86 -170 6 -246 12 -274 23 -60 23 -294 45 -536 51 -118 3 -217 3 -220 0z"/>
<path d="M4185 6819 c-301 -14 -364 -30 -456 -115 -74 -70 -99 -119 -115 -227
-25 -163 -17 -302 36 -632 41 -262 42 -278 36 -435 -9 -206 -14 -234 -46 -238
-14 -2 -97 -20 -185 -42 -172 -42 -408 -91 -465 -97 -79 -7 -280 -35 -357 -49
-45 -7 -102 -14 -126 -14 -44 0 -45 0 -57 44 -9 31 -11 98 -7 223 5 201 17
261 88 435 22 57 54 141 69 188 15 47 47 132 71 190 l44 105 0 150 c0 145 -1
152 -29 208 -44 91 -103 140 -236 198 -153 67 -197 76 -382 83 -136 5 -163 3
-210 -13 -90 -31 -135 -58 -206 -125 -69 -66 -113 -130 -254 -366 -122 -203
-271 -540 -312 -705 -68 -272 -86 -432 -86 -754 0 -265 8 -353 55 -565 13 -61
35 -171 50 -244 14 -74 44 -186 66 -250 22 -65 62 -180 89 -257 86 -254 111
-305 235 -495 34 -52 88 -138 120 -190 65 -108 100 -154 200 -260 39 -41 110
-128 159 -193 159 -213 247 -292 361 -323 207 -56 194 -60 480 138 86 59 180
110 285 153 129 53 175 116 168 228 -5 74 -105 335 -178 462 -25 44 -56 105
-67 135 -51 129 -123 394 -123 451 0 14 7 19 26 19 34 0 222 45 363 87 106 31
161 52 316 117 103 44 95 51 160 -151 31 -97 63 -204 70 -237 7 -34 22 -99 33
-146 12 -47 24 -107 27 -135 4 -27 20 -129 35 -225 16 -96 41 -254 56 -350 29
-196 53 -263 105 -302 46 -34 86 -45 204 -54 150 -11 210 -8 320 16 55 12 155
32 223 45 96 19 144 34 225 73 56 27 117 64 135 83 39 40 76 115 90 184 21
100 34 414 30 730 -4 300 -6 333 -36 525 -18 113 -41 228 -51 255 -20 52 -21
64 -41 505 -6 118 -15 249 -20 290 -5 41 -14 136 -20 210 -10 119 -20 193 -61
450 -9 55 -51 238 -115 499 -9 34 -33 104 -54 155 -20 51 -52 137 -70 191 -68
207 -145 317 -246 355 -61 22 -104 23 -419 9z"/>
</g>
</svg>
